<?xml version="1.0" standalone="no"?>
<!DOCTYPE svg PUBLIC "-//W3C//DTD SVG 20010904//EN"
 "http://www.w3.org/TR/2001/REC-SVG-20010904/DTD/svg10.dtd">
<svg version="1.0" xmlns="http://www.w3.org/2000/svg"
 width="400.000000pt" height="400.000000pt" viewBox="0 0 400.000000 400.000000"
 preserveAspectRatio="xMidYMid meet">
<metadata>
Created by potrace 1.11, written by Peter Selinger 2001-2013
</metadata>
<g transform="translate(0.000000,400.000000) scale(0.100000,-0.100000)"
fill="#000000" stroke="none">
<path d="M1917 3150 c-33 -34 -45 -40 -68 -35 -49 11 -99 -5 -139 -45 -21 -21
-49 -41 -62 -45 -58 -18 -86 -52 -112 -138 -73 -241 -62 -413 54 -843 51 -190
64 -332 50 -574 -5 -96 -14 -202 -20 -235 -20 -123 -11 -197 32 -243 l21 -22
789 0 788 0 0 40 0 40 -498 0 -498 0 0 67 c0 38 -7 127 -16 198 -11 91 -16
193 -14 340 3 208 3 211 41 350 96 355 110 442 102 638 -5 138 -31 270 -66
335 -15 28 -69 69 -102 77 -17 4 -31 20 -45 48 -27 59 -73 87 -142 87 -50 0
-57 -3 -95 -40z m153 -25 c40 -20 48 -51 19 -74 -31 -25 -16 -41 37 -41 36 0
104 -22 104 -33 0 -2 -9 -21 -21 -42 -17 -34 -19 -51 -14 -116 6 -63 4 -79
-10 -92 -36 -36 -59 -7 -56 73 1 53 -2 62 -29 94 -38 43 -81 53 -135 32 -49
-19 -365 -28 -365 -10 0 6 12 21 26 35 25 23 26 23 39 6 21 -29 48 -17 56 23
22 106 176 106 198 0 4 -22 13 -36 25 -38 39 -8 41 42 5 106 -22 38 -17 57 20
77 34 18 65 19 101 0z m2 -333 c-4 -44 15 -99 41 -117 35 -24 83 -19 112 12
24 26 31 57 26 113 -2 17 1 22 8 15 13 -13 31 -104 31 -156 l0 -39 -54 0 -54
0 -1 -80 c-2 -89 -22 -240 -46 -340 -73 -306 -88 -479 -65 -735 7 -77 12 -155
11 -173 -1 -18 3 -50 9 -71 18 -68 12 -71 -113 -71 -119 0 -126 -6 -52 -44 29
-15 27 -16 -65 -16 -114 0 -141 -6 -133 -28 3 -10 -4 -6 -16 8 -25 30 -25 47
-5 186 12 76 17 181 17 349 1 264 3 254 -76 555 -25 96 -51 207 -58 245 -17
88 -17 316 -1 372 l13 43 202 2 c304 4 273 8 269 -30z m-279 -1739 c-7 -2 -19
-2 -25 0 -7 3 -2 5 12 5 14 0 19 -2 13 -5z"/>
</g>
</svg>
